<svg
  xmlns="http://www.w3.org/2000/svg"
  width="24"
  height="24"
  viewBox="0 0 24 24"
  fill="none"
  stroke="currentColor"
  stroke-width="1.8"
  stroke-linecap="round"
  stroke-linejoin="round"
>
  <!-- Headboard -->
  <path d="M6 7h12v4" />

  <!-- Pillows -->
  <path d="M6 11c0-1.1.9-2 2-2h2c1.1 0 2 .9 2 2" />
  <path d="M12 11c0-1.1.9-2 2-2h2c1.1 0 2 .9 2 2" />

  <!-- Mattress -->
  <path d="M5 11h14c1.1 0 2 .9 2 2v3H3v-3c0-1.1.9-2 2-2z" />

  <!-- Legs -->
  <path d="M4 16v2" />
  <path d="M20 16v2" />
</svg>