<svg
  xmlns="http://www.w3.org/2000/svg"
  viewBox="0 0 24 24"
  width="24"
  height="24"
  aria-hidden="true"
>
  <!-- Badge -->
  <path
    fill="currentColor"
    d="M12 1.5
       14.1 3.2
       16.8 2.8
       18.3 5.1
       21 5.9
       21.1 8.7
       23 10.8
       21.6 13.2
       22.2 15.9
       20 17.5
       19.2 20.1
       16.4 20.3
       14.4 22.2
       12 21
       9.6 22.2
       7.6 20.3
       4.8 20.1
       4 17.5
       1.8 15.9
       2.4 13.2
       1 10.8
       2.9 8.7
       3 5.9
       5.7 5.1
       7.2 2.8
       9.9 3.2Z"
  />

  <!-- Check -->
  <path
    d="M9.8 12.9l-2-2a1 1 0 0 0-1.4 1.4l2.7 2.7a1 1 0 0 0 1.4 0l6-6a1 1 0 1 0-1.4-1.4z"
    fill="#fff"
  />
</svg>