<svg xmlns="http://www.w3.org/2000/svg"
     viewBox="0 0 32 32"
     width="32"
     height="32">
  <path fill="#25D366" fill-rule="evenodd"
        d="M16 3C8.8 3 3 8.7 3 15.8c0 2.5.7 4.8 2 6.8L3 29l6.6-1.9c1.9 1 4.1 1.6 6.4 1.6 7.2 0 13-5.7 13-12.9S23.2 3 16 3zm0 23.3c-2 0-3.9-.5-5.5-1.5l-.4-.2-3.9 1.1 1.1-3.8-.3-.4c-1.1-1.7-1.7-3.7-1.7-5.8C5.3 9.9 10 5.3 16 5.3s10.7 4.6 10.7 10.4S22 26.3 16 26.3z

        M20.8 18.8c-.3-.2-1.7-.8-2-.9-.3-.1-.5-.1-.7.2l-.8 1c-.2.2-.4.2-.7.1-.4-.2-1.5-.6-2.8-1.8-1-1-1.7-2.2-1.9-2.5-.2-.3 0-.5.1-.7l.5-.6c.1-.2.2-.3.3-.5.1-.2 0-.4 0-.5l-.8-1.9c-.2-.5-.5-.4-.7-.4h-.6c-.2 0-.5.1-.8.4-.3.3-1 1-1 2.3s1 2.7 1.1 2.9c.1.2 2 3.3 4.8 4.5 2.8 1.2 2.9.8 3.4.8.5 0 1.6-.7 1.9-1.3.3-.7.3-1.2.2-1.3-.1-.1-.3-.2-.5-.3z"
        clip-rule="evenodd"/>
</svg>